<svg width="635" height="641" viewBox="0 0 635 641" fill="none" xmlns="http://www.w3.org/2000/svg">
<path fill-rule="evenodd" clip-rule="evenodd" d="M64.1791 183.076C66.8145 176.118 80.3014 154.007 84.332 151.533C85.2621 148.131 92.5482 139.936 94.8735 136.843C102.47 127.102 108.05 122.927 113.476 116.433C119.832 108.547 140.14 92.4659 147.891 86.5901C166.959 72.3646 193.002 57.8298 215.636 49.9439C239.819 41.2849 275.939 31.5435 301.673 31.5435C333.608 31.5435 342.289 30.7704 374.998 37.2647C404.608 43.1404 427.551 52.8818 451.114 64.4787C474.833 76.3848 492.66 91.5381 511.883 108.083C512.038 108.083 512.348 108.392 512.503 108.547C512.658 108.701 512.968 108.856 513.123 109.011L523.82 119.371C539.942 136.689 546.453 145.193 559.165 164.985C561.025 167.768 562.73 170.088 564.28 172.562C565.831 175.5 566.916 177.819 568.776 180.757C573.117 188.024 582.108 208.589 585.208 216.939C587.689 223.588 589.704 229.618 591.874 236.577C595.75 249.101 598.695 264.409 600.711 279.253C602.106 288.84 604.276 318.373 603.191 328.115C598.85 366.152 600.09 373.884 585.673 414.859C581.023 427.848 575.287 438.826 569.551 450.269C563.505 462.329 556.684 471.916 549.243 482.74C545.833 487.688 542.267 492.172 538.392 496.965L535.446 500.367C534.051 502.068 533.741 502.223 532.346 503.769C514.053 522.942 518.239 519.386 498.706 536.395C459.02 570.722 406.158 591.596 353.76 599.173C303.533 606.44 254.236 598.09 209.28 580.308L182.461 567.011C176.725 566.083 167.579 559.434 162.773 556.341C155.952 552.012 148.976 547.992 144.326 542.889L98.129 544.126C99.9892 546.755 102.47 549.229 105.26 551.393C126.343 568.248 141.38 581.855 167.424 594.843C171.299 596.699 172.85 598.09 176.88 600.1L208.505 613.707C215.946 616.181 223.697 618.81 230.983 620.82C252.531 626.387 259.042 627.469 281.365 630.561C305.394 633.809 344.459 632.417 366.627 628.706C384.92 625.613 399.027 622.366 414.994 617.109L458.865 599.636C494.52 623.449 552.964 642.931 598.075 639.684C604.276 639.22 609.547 635.819 609.857 629.17C610.167 620.356 598.85 610.769 592.029 602.574L542.112 539.796L564.59 513.819C572.652 504.233 578.542 495.264 585.363 485.059C591.409 476.091 597.92 464.494 602.726 453.98L614.042 428.312C619.623 412.695 623.654 398.469 627.839 381.151C643.807 313.889 630.785 234.876 601.176 175.654C593.89 161.119 583.503 143.801 573.582 130.658C569.861 125.556 566.606 121.535 562.575 116.278C551.724 102.362 527.23 79.0135 513.123 68.0351C490.335 50.2532 477.158 42.8312 451.734 30.1519C416.544 12.5246 375.308 3.24713 334.383 1.08238L311.129 0C295.627 0 257.802 5.41188 245.555 8.19513C207.42 17.318 173.935 31.6982 141.69 53.0364C136.419 56.5928 132.389 59.3761 127.428 62.9324C125.103 64.7879 123.398 66.025 120.762 67.8805L107.74 79.1681C84.6421 97.7231 60.9237 128.339 45.1114 153.388C35.8101 168.232 23.8734 193.591 17.6725 211.218C8.06115 238.123 0 272.14 0 305.075C41.5459 305.075 30.0743 307.549 31.7795 290.541C33.1747 277.861 35.345 263.017 38.4455 250.957C44.8014 225.444 53.3276 203.177 64.1791 183.076Z" fill="#BDBDBD"/>
<path fill-rule="evenodd" clip-rule="evenodd" d="M436.699 391.359C436.699 374.969 439.644 347.909 452.511 336.622C469.253 345.59 475.764 383.783 475.764 400.791C475.764 417.027 476.229 426.304 471.579 442.076C466.153 460.941 459.177 468.826 448.635 448.88C445.535 443.159 441.194 429.397 439.954 422.903L436.699 391.359ZM84.3335 151.536C80.303 154.01 66.816 176.121 64.1807 183.079L112.238 173.028C120.764 171.328 128.515 170.554 137.041 169.317C145.567 168.08 154.714 167.307 164.48 167.307C157.504 173.338 151.923 180.296 144.792 186.481C138.436 192.047 128.98 199.624 124.484 206.273C128.36 211.994 137.351 219.107 141.382 225.137L212.847 157.566C216.257 154.164 217.498 153.236 221.218 150.144C226.799 145.505 231.605 139.475 237.03 134.527C237.96 133.754 237.805 133.754 238.736 132.98C244.316 128.342 265.709 106.385 270.05 105.303C270.05 109.632 275.321 126.022 276.251 135.764C278.111 156.793 279.351 180.76 266.795 197.768C262.144 203.799 252.998 211.685 244.626 213.54C246.487 217.406 252.843 233.332 253.153 237.816C256.873 237.507 257.648 236.889 260.439 235.497C262.609 234.569 264.624 233.641 266.64 232.404C276.251 226.219 291.753 213.076 294.233 202.098C301.364 203.953 324.463 233.796 330.974 244.311C332.989 247.712 335.314 250.341 337.64 253.434C350.351 270.442 370.814 287.76 388.642 299.512C399.803 306.934 416.701 317.912 428.173 324.097C421.662 333.839 417.476 342.034 414.221 355.332C407.245 385.174 410.345 424.14 421.662 452.591C423.677 457.384 428.328 464.652 429.258 468.208L397.323 480.578C343.996 503.308 327.873 521.244 268.655 530.986C255.788 533.15 242.146 535.47 228.969 536.552C215.482 537.789 201.22 539.645 187.733 540.727C184.323 541.036 180.602 540.572 177.192 540.882C173.006 541.191 172.076 541.809 166.65 541.809C159.054 541.809 153.163 542.892 144.327 542.892C148.978 547.994 155.954 552.015 162.775 556.344C167.58 559.437 176.727 566.086 182.463 567.013C204.321 567.323 261.059 558.664 284.002 554.798C347.561 544.129 378.875 509.957 447.085 490.165C449.876 489.392 455.301 487.845 458.092 487.381C469.098 485.835 477.004 485.681 485.996 472.228C514.21 430.479 503.358 341.879 471.889 318.376C465.843 313.737 460.107 312.036 453.596 308.171C447.705 304.769 441.504 301.677 435.459 297.966C416.856 286.833 400.734 276.937 383.836 263.175L368.954 249.568C353.607 234.415 348.181 219.725 331.439 201.789C323.998 193.748 310.821 177.976 302.76 172.565C308.03 149.525 298.109 106.076 290.358 83.9643C287.723 76.2331 281.832 64.4815 280.591 58.915C277.956 59.6882 264.159 72.6767 261.369 75.4599C258.113 78.7071 255.633 81.1811 252.377 84.4282L196.415 137.155C191.454 142.413 192.074 141.021 182.463 141.021C148.358 140.712 115.958 144.268 84.3335 151.536Z" fill="#BDBDBD"/>
<path fill-rule="evenodd" clip-rule="evenodd" d="M224.627 330.437C224.627 344.972 235.789 357.806 253.151 357.806C265.398 357.806 278.42 345.591 278.42 333.53C278.42 324.562 277.955 318.841 270.203 311.109C255.166 295.956 224.627 306.161 224.627 330.437Z" fill="#BDBDBD"/>
</svg>
